<?xml version="1.0" encoding="UTF-8" standalone="no"?>
<!-- Created with Inkscape (http://www.inkscape.org/) -->

<svg
   width="16"
   height="16"
   viewBox="0 0 4.2333333 4.2333333"
   version="1.1"
   id="svg5"
   inkscape:version="1.1 (1:1.1+202106031931+af4d65493e)"
   sodipodi:docname="logo_banne.svg"
   xmlns:inkscape="http://www.inkscape.org/namespaces/inkscape"
   xmlns:sodipodi="http://sodipodi.sourceforge.net/DTD/sodipodi-0.dtd"
   xmlns="http://www.w3.org/2000/svg"
   xmlns:svg="http://www.w3.org/2000/svg">
  <sodipodi:namedview
     id="namedview7"
     pagecolor="#505050"
     bordercolor="#ffffff"
     borderopacity="1"
     inkscape:pageshadow="0"
     inkscape:pageopacity="0"
     inkscape:pagecheckerboard="1"
     inkscape:document-units="px"
     showgrid="false"
     inkscape:zoom="25.15096"
     inkscape:cx="7.6339036"
     inkscape:cy="7.912223"
     inkscape:window-width="1366"
     inkscape:window-height="708"
     inkscape:window-x="0"
     inkscape:window-y="30"
     inkscape:window-maximized="1"
     inkscape:current-layer="layer1" />
  <defs
     id="defs2" />
  <g
     inkscape:label="Capa 1"
     inkscape:groupmode="layer"
     id="layer1">
    <g
       transform="matrix(0.02524328,0,0,0.0251515,-0.83270434,-5.0151847)"
       id="g215">
      <path
         style="fill:#bdaeab;fill-opacity:1;stroke:#bdaeab;stroke-width:0.729214;stroke-miterlimit:4;stroke-dasharray:none;stroke-opacity:1"
         d="m 85.729516,281.23821 c -0.347897,-0.14464 -0.504974,-0.49647 -0.86651,-0.65844 -2.235604,-1.00151 -4.331264,-2.61242 -6.410951,-4.46341 -4.506159,-4.01063 -8.408395,-9.6698 -10.120104,-14.77694 -0.801995,-2.39287 -1.931858,-7.63578 -2.537817,-11.62389 -0.605951,-3.98812 -1.309857,-9.57942 -1.915325,-12.3711 -1.42163,-6.55486 -1.834373,-11.55753 -0.446945,-12.69606 1.462441,-1.2001 5.209923,-0.70381 12.066314,2.42404 3.319816,1.51448 5.692879,2.481 5.94605,3.26973 0.807473,2.51556 4.126529,6.63974 5.914566,6.63974 2.631561,0 3.537356,-2.29221 2.177477,-5.51034 -0.801281,-1.89622 -1.788241,-4.10149 -1.778699,-5.01361 0.0094,-0.89573 1.84687,-1.70627 2.389083,-1.33813 0.50468,0.34265 0.342964,2.48785 1.10283,4.18638 1.72706,3.86051 3.918323,5.27159 6.429448,4.14028 2.076518,-0.93551 1.296313,-3.25121 -0.337642,-7.83037 -0.867094,-2.43003 -0.503652,-3.84177 0.30775,-4.14964 0.259579,-0.0985 1.017474,-0.79722 1.385448,-0.62402 0.463816,0.2183 0.528927,1.3803 0.668512,1.93022 0.566979,2.23363 3.253699,5.50788 4.519549,5.50788 0.56643,0 1.57584,-0.82389 2.24312,-1.83086 1.06266,-1.60363 1.10035,-2.35686 0.3037,-6.06875 -0.29905,-1.39339 -1.22722,-2.42647 -1.2736,-3.37551 -0.0752,-1.53772 0.94568,-2.85481 1.60881,-5.12647 1.5719,-5.38484 2.96574,-9.53983 4.70094,-9.53983 1.1762,0 4.77672,1.52034 8.33332,3.96847 3.75194,2.58259 7.50086,6.16945 10.11546,8.97795 8.32016,8.93718 12.95132,18.44262 14.21093,27.78666 l 0.71262,5.28637 -3.76211,-0.5 c -1.71218,-0.22756 -3.32795,-0.45075 -3.86254,-1.08767 -1.31671,-1.56874 -4.76765,-1.33735 -10.63343,0.71298 -6.27088,2.19193 -11.53098,2.31137 -16.50015,0.37469 -7.67294,-2.99046 -10.891781,-1.25772 -15.576914,7.91838 -3.132249,6.1347 -5.313803,8.68571 -10.851987,12.68982 -1.512514,1.09354 -2.904705,2.41598 -2.904705,2.99275 0,1.69624 5.265381,6.97626 8.300213,8.3233 1.30864,0.58086 26.433463,-8.09522 26.606873,-7.7716 0.17775,0.33174 -24.623047,9.65789 -25.495691,9.82283 -1.001853,0.18937 -2.883343,0.16437 -4.127058,-0.35276 z m 1.567385,-22.95243 c 4.690435,-1.9378 7.62056,-5.21823 4.674535,-7.04362 -0.95398,-0.5911 -0.566999,0.43066 -2.656805,2.24495 -2.039265,1.77041 -4.562604,2.77882 -6.803193,2.77882 -2.397479,0 -3.0721,-0.83391 -3.749002,0.63505 -0.631157,1.36971 -0.606326,2.05236 0.10552,2.90045 1.168416,1.39206 5.187927,-0.17666 8.428945,-1.51565 z M 119.21429,245.9633 c 5.47746,-2.16705 7.91044,-8.34534 3.48459,-8.84871 -1.33467,-0.15179 -1.29912,0.35258 -1.59722,1.12071 -0.61713,1.59016 -4.75614,3.7535 -7.43648,3.7535 -1.52187,0 -2.72758,-0.16306 -3.3174,0.92667 -0.72945,1.3477 -0.61225,1.77869 0.78878,2.90044 1.01905,0.81592 2.17635,0.0138 3.46822,0.0345 1.28269,0.0206 2.69672,0.8696 4.60951,0.11284 z M 73.770605,235.14028 c 0.796774,-1.27473 1.448669,-2.81062 1.448669,-3.41308 0,-1.41077 -3.638759,-2.90119 -6.337891,-2.59596 -1.902511,0.21513 -2.088082,0.48441 -2.014792,2.92357 0.04444,1.47764 0.488118,3.65911 0.986041,4.84771 0.818862,1.95473 1.075487,2.08444 2.68731,1.35828 0.980101,-0.44155 2.433897,-1.84579 3.230663,-3.12052 z m 45.794735,-20.16947 c 1.77447,-1.28296 1.08854,-2.9626 -1.97105,-4.8265 -3.44286,-2.0974 -5.15809,-1.63024 -6.26003,1.70497 -0.50595,1.53132 -0.73425,3.08124 -0.50734,3.44428 0.63861,1.02169 7.21487,0.7788 8.73842,-0.32275 z"
         id="path5728"
         inkscape:connector-curvature="0"
         sodipodi:nodetypes="cssscccscsssscsscscsccscsssscscscscscscccscssccscccsccscccccccccccccc" />
      <path
         style="fill:#bdaeab;fill-opacity:1;stroke:#bdaeab;stroke-width:0.257816;stroke-miterlimit:4;stroke-dasharray:none;stroke-opacity:1"
         d="m 119.58087,357.45851 c -0.20735,-3.59884 -0.73693,-5.49472 -1.83928,-6.58472 l -0.92254,-0.75909 1.57935,-0.0453 c 0.90024,-0.11809 1.29809,-0.28737 1.29809,-0.55233 0,-0.55464 -0.72082,-0.75047 -5.05585,-1.37355 -7.10984,-1.02192 -11.76246,-2.01866 -17.163245,-4.75281 -4.889698,-2.47541 -8.169121,-5.33816 -11.974341,-10.91317 -4.157239,-6.09073 -5.746085,-13.23913 -5.8264,-19.99016 -0.03681,-3.09597 -0.44997,-4.18791 0.282134,-5.49443 0.718636,-1.28255 7.885149,-3.04168 8.624345,-2.35457 9.102196,14.34152 -5.421286,1.14958 -5.868325,1.41912 -0.502514,0.30298 -1.096424,1.06115 -1.555649,1.98587 -1.893139,3.81223 -0.689765,10.93055 3.319809,19.63761 0.729475,1.58411 1.43915,3.02258 1.577054,3.19662 0.424164,0.53527 5.489725,-3.07449 6.82799,-4.86568 1.743024,-2.33295 2.006873,-3.27824 1.873889,-6.71359 l -4.535554,-9.07985 3.007401,1.62885 1.910633,5.32986 c 0.66822,1.10654 1.761549,2.23206 2.168223,2.23206 0.484298,0 0.722215,-0.57038 1.604012,-3.84548 1.517544,-5.6363 -11.081003,-38.08588 5.580784,-12.93906 1.95094,-1.90582 4.61613,-3.13343 7.09773,-3.85461 1.66558,-0.48403 7.1515,-0.42553 9.48882,0.002 3.87026,0.70744 8.53333,2.86031 11.48301,5.98337 2.30798,2.44364 3.20161,4.82799 4.76976,8.7105 1.32231,3.27389 1.06811,3.80266 1.53996,3.51431 0.36097,-0.22058 0.16771,-1.82305 -0.53821,-4.46287 -1.52029,-5.68521 -4.64341,-10.1785 -9.02087,-12.97849 -3.72759,-2.38431 -7.74712,-3.64942 -12.34289,-3.88482 -2.63838,-0.13514 -3.57017,-0.0703 -6.09297,0.42385 -3.00184,0.588 -7.30947,1.93365 -9.13054,2.85227 l -0.98515,0.49695 -1.487142,-1.01618 c -4.620408,-3.15718 -6.283726,-6.11981 -6.283726,-11.19235 v -2.42601 l 0.842644,-0.52312 c 2.008032,-1.24659 7.830774,-3.88997 10.695094,-4.85529 7.99374,-2.69402 11.47051,-3.26652 25.01895,-4.11972 2.49493,-0.15711 4.74089,-0.39396 4.99104,-0.52633 0.56064,-0.29668 0.59265,-1.33154 0.0576,-1.86063 -0.21848,-0.21604 -0.83102,-0.4765 -1.36119,-0.57882 -1.18556,-0.22878 -13.6792,0.53909 -18.6389,0.76837 -0.20649,0.01 -0.0646,-0.23921 -0.2448,-0.23071 -2.19784,0.10364 3.35419,-0.59851 4.33101,-0.73111 0.85561,-0.11615 3.61078,-0.2001 5.3587,-0.30113 l 3.17806,-0.1837 4.18991,-5.53839 c 4.28138,-5.6593 5.346,-7.47574 6.47654,-11.05025 0.46344,-1.46529 0.60813,-2.51744 0.60813,-4.42231 l -0.56348,-3.52709 3.73959,1.02751 2.58237,-6.46875 0.83132,9.34182 0.63938,2.58266 2.85426,2.43934 c 3.19477,2.73035 8.18959,6.1045 8.18959,6.42611 0,0.10109 -3.09128,1.10078 -5.60909,2.22153 l -4.57784,2.03772 -0.60512,1.28488 c -1.45905,3.09802 -0.47292,4.80986 2.97612,5.16631 2.98875,0.30888 6.99753,-0.77741 11.00385,-2.98181 2.20713,-1.21444 2.3102,-2.01521 2.75766,-1.61481 0.98242,0.87911 6.11412,8.53269 5.8596,8.77966 -0.051,0.0494 -2.41358,0.56192 -4.41,1.29161 -2.1177,0.77403 -5.23301,2.2276 -7.65324,2.74525 -3.21619,0.68791 -4.40884,0.48862 -4.87614,0.94602 -1.29402,1.26665 -0.94152,4.67685 0.62393,6.03591 1.33405,1.15816 2.56593,1.37734 6.84959,1.21869 5.11269,-0.18935 11.66715,-2.94384 13.01865,-4.28018 0.44142,-0.43646 0.19311,0.96137 1.22114,4.06662 0.59012,1.78249 1.69236,3.65414 1.72375,4.1974 l -0.1304,0.95652 -2.999,1.07042 c -5.16447,2.00769 -6.44635,2.80331 -11.25462,2.80331 -4.98018,0 -6.22005,-0.25419 -7.82499,1.25543 -0.76543,0.71996 -1.01419,1.15435 -1.01419,1.77098 0,1.28999 0.60718,2.40301 1.94708,3.56921 1.56868,1.36532 3.80525,2.07836 7.12754,2.27233 3.28428,0.19174 5.86666,-0.20689 10.27433,-1.58603 2.01731,-0.63121 4.22384,-1.83516 4.33049,-1.83516 0.2223,0 0.31535,10.53134 0.0634,11.56638 -0.1597,0.65603 -1.06588,-0.40376 -3.09187,-0.26754 -1.16205,0.0781 -5.49636,0.23675 -9.6318,0.35247 -7.03538,0.19688 -7.5895,0.24695 -8.61554,0.7786 -2.0434,1.05877 -2.41617,3.15825 -0.98847,5.56711 1.74137,2.93808 6.6239,4.35874 14.36942,4.18104 2.01397,-0.0462 4.5991,-0.5465 4.59889,-0.42435 -7.3e-4,0.4528 -3.56958,7.46832 -3.87946,7.58591 -0.27402,0.10396 -5.75309,-0.74661 -13.68426,-1.38689 -2.51283,-0.20287 -3.62659,0.008 -4.47599,0.84801 -1.38351,1.368 -0.53718,4.70844 1.6652,6.57244 1.63463,1.38348 3.541,2.01432 6.55771,2.16998 l 4.67291,-1.46228 -2.84529,3.18328 c -1.23548,1.38224 -5.8743,4.44852 -6.97285,5.16024 -0.60539,0.39222 -0.7103,0.35493 -2.94826,-1.04788 -2.4821,-1.55585 -4.96675,-2.67997 -5.94544,-2.68987 -0.69811,-0.007 -2.76115,1.32053 -2.99718,1.92872 -0.58853,1.51647 0.28114,3.58707 2.29922,5.47428 l 1.4048,1.31369 -2.12343,1.05567 c -1.16789,0.58061 -3.16888,1.45488 -4.44665,1.94282 -2.01112,0.76798 -2.23488,1.27305 -2.4712,0.94048 -1.89293,-2.66388 -2.89266,-4.14575 -3.74264,-4.75668 -1.17977,-0.848 -2.34938,-0.95113 -2.73371,-0.24105 -0.42879,0.79221 -0.57587,3.10501 -0.31964,5.0261 0.13165,0.98701 0.20659,1.83195 0.16655,1.87766 -0.15486,0.17675 -6.23149,1.31022 -7.89112,1.47192 l -1.74919,0.17043 z"
         id="path5714"
         inkscape:connector-curvature="0"
         sodipodi:nodetypes="ccccscscccccccccccccsccccsccssscscssccsccccsscccssscccccsscccscccccccscccccscssccsccccccccccsscscccccccccccccccc" />
      <path
         style="fill:#948481;fill-opacity:1;stroke:#948481;stroke-width:0.729214;stroke-linecap:butt;stroke-linejoin:miter;stroke-miterlimit:4;stroke-dasharray:none;stroke-opacity:1"
         d="m 111.84368,360.67287 c 0,0 -0.80209,-7.59102 1.67294,-9.31316 0.78792,-0.54824 1.59226,-1.06688 2.10402,-1.08994 1.09577,-0.0494 1.79185,0.84068 1.79185,0.84068 0,0 1.32917,1.58619 1.55834,3.85216 0.22917,2.26598 0.48125,6.00321 0.48125,6.00321 l -3.25888,-0.15649 z"
         id="path5528"
         inkscape:connector-curvature="0"
         sodipodi:nodetypes="csscsccc" />
      <path
         style="fill:#bdaeab;fill-opacity:1;stroke:#bdaeab;stroke-width:0.257816;stroke-miterlimit:4;stroke-dasharray:none;stroke-opacity:1"
         d="m 106.99203,360.68388 c -1.49731,-0.0986 -3.38165,-0.26109 -4.18741,-0.3611 l -1.46504,-0.18184 1.14031,-1.97157 c 1.86637,-3.22691 2.78102,-5.61088 2.80541,-7.31213 l -0.01,-1.52633 1.06835,0.19459 c 2.66661,0.41996 4.81775,0.6326 6.48188,0.64074 l 2.97117,-0.33475 -1.95708,0.82661 c -1.90268,1.14723 -2.53,3.01292 -2.53077,7.52665 l 0.28078,3.00594 -1.07833,-0.2887 c -0.43839,-0.0213 -2.0534,0.16187 -3.55071,0.0633 z"
         id="path5712"
         inkscape:connector-curvature="0"
         sodipodi:nodetypes="cscsccccccscccc" />
      <path
         style="fill:#bdaeab;fill-opacity:1;stroke:#bdaeab;stroke-width:0.257816;stroke-miterlimit:4;stroke-dasharray:none;stroke-opacity:1"
         d="m 91.046621,357.25114 c -3.448297,-1.4083 -7.792965,-3.13849 -7.792965,-3.39205 0,-0.13134 1.27545,-0.84411 2.024102,-1.52993 3.964326,-3.63161 6.606851,-6.4259 6.57762,-8.20327 l -0.0221,-0.92373 1.672589,1.21553 c 1.138679,0.75361 2.772113,1.68871 3.62985,2.07801 0.857729,0.38929 2.288717,0.54968 2.288717,0.70753 0,0.35899 -2.233974,4.96959 -3.970845,8.59888 -0.877508,1.83358 -1.457198,2.7522 -1.732091,2.74478 -0.227247,-0.006 -1.346566,-0.39233 -2.487379,-0.85825 z"
         id="path5716"
         inkscape:connector-curvature="0"
         sodipodi:nodetypes="cssscccscccc" />
      <path
         style="fill:#bdaeab;fill-opacity:1;stroke:#bdaeab;stroke-width:0.257816;stroke-miterlimit:4;stroke-dasharray:none;stroke-opacity:1"
         d="m 75.320211,348.495 c -0.619547,-0.5 -1.51324,-1.33639 -1.985987,-1.85865 -1.126806,-1.24483 -4.331424,-5.1924 -4.319998,-5.38887 0.0051,-0.0842 1.731095,-0.92464 3.67394,-1.84053 5.606142,-2.64283 9.457669,-5.42298 9.457669,-6.71111 0,-0.22406 0.43783,0.38558 1.026973,1.21971 0.589136,0.83413 1.817576,2.41069 2.729858,3.50345 0.912283,1.09275 2.127089,1.74376 1.94335,1.74376 -0.183731,0 -3.225668,2.49268 -6.003648,5.2422 -2.77798,2.74953 -5.283139,5.13172 -5.377974,5.13172 -0.09483,0 -0.524635,-0.54168 -1.144183,-1.04168 z"
         id="path5718"
         inkscape:connector-curvature="0"
         sodipodi:nodetypes="sccssccscss" />
      <path
         style="fill:#948481;fill-opacity:1;stroke:#948481;stroke-width:0.729214;stroke-linecap:butt;stroke-linejoin:miter;stroke-miterlimit:4;stroke-dasharray:none;stroke-opacity:1"
         d="m 87.503875,339.15557 -10.665004,10.52773 2.751498,1.71806 3.65404,2.17716 c 0,0 9.608524,-7.69967 8.096011,-10.5548 -1.512514,-2.85513 -3.836545,-3.86815 -3.836545,-3.86815 z"
         id="path5532"
         inkscape:connector-curvature="0"
         sodipodi:nodetypes="ccccsc" />
      <path
         style="fill:#bdaeab;fill-opacity:1;stroke:#bdaeab;stroke-width:0.257816;stroke-miterlimit:4;stroke-dasharray:none;stroke-opacity:1"
         d="m 63.879037,333.44532 c -1.546526,-2.62795 -3.948342,-7.71095 -3.948342,-8.57728 0,-0.10721 1.386829,-0.38272 2.919788,-0.55822 6.615482,-0.7574 12.139336,-1.96272 13.654622,-2.97948 l 0.954881,-1.11175 0.495563,2.74463 c 0.321181,1.21787 0.784461,2.74564 1.029521,3.39504 l 0.445563,1.18073 -7.155748,3.50676 c -3.93566,1.92871 -7.2905,3.5028 -7.4552,3.49794 -0.164701,-0.005 -0.587992,-0.49911 -0.940648,-1.09837 z"
         id="path5720"
         inkscape:connector-curvature="0"
         sodipodi:nodetypes="csccccccccc" />
      <path
         style="fill:#948481;fill-opacity:1;stroke:#948481;stroke-width:0.729214;stroke-linecap:butt;stroke-linejoin:miter;stroke-miterlimit:4;stroke-dasharray:none;stroke-opacity:1"
         d="m 76.666279,302.70921 -0.825008,5.25707 c 0,0 -18.21824,1.33304 -17.85157,-2.4738 0.36667,-3.80684 1.40186,-7.09184 1.40186,-7.09184 0,0 10.124653,5.71348 17.274718,4.30857 z"
         id="path5538"
         inkscape:connector-curvature="0"
         sodipodi:nodetypes="ccscc" />
      <path
         style="fill:#948481;fill-opacity:1;stroke:#000000;stroke-width:0;stroke-linecap:butt;stroke-linejoin:miter;stroke-miterlimit:4;stroke-dasharray:none;stroke-opacity:1"
         d="m 156.21969,262.5065 -9.42051,4.25514 c 0,0 -3.88912,5.38368 1.23155,6.21687 5.12068,0.83319 10.50063,-2.11502 10.50063,-2.11502 l 3.98472,-2.22087 -3.3162,-3.34727 z"
         id="path5514"
         inkscape:connector-curvature="0"
         sodipodi:nodetypes="ccscccc" />
      <path
         style="fill:#948481;fill-opacity:1;stroke:#000000;stroke-width:0;stroke-linecap:butt;stroke-linejoin:miter;stroke-miterlimit:4;stroke-dasharray:none;stroke-opacity:1"
         d="m 168.23796,277.25661 -8.15094,2.96423 -6.87079,1.41001 c 0,0 -3.56503,0.12819 -1.81493,5.51187 1.75011,5.38368 19.51044,0.83319 20.54754,-0.70501 1.0371,-1.53819 -3.71088,-9.1811 -3.71088,-9.1811 z"
         id="path5516"
         inkscape:connector-curvature="0"
         sodipodi:nodetypes="ccccsc" />
      <path
         style="fill:#948481;fill-opacity:1;stroke:#000000;stroke-width:0;stroke-linecap:butt;stroke-linejoin:miter;stroke-miterlimit:4;stroke-dasharray:none;stroke-opacity:1"
         d="m 174.86568,294.54529 c -0.38892,0.25636 -6.62851,2.74627 -9.59317,3.30071 -2.71742,0.5082 -8.29679,0 -8.29679,0 0,0 -7.84307,1.41001 -4.01877,6.28095 3.82431,4.87096 14.77867,2.56367 14.77867,2.56367 l 7.77822,-2.49957 -0.31243,-6.69939 z"
         id="path5518"
         inkscape:connector-curvature="0"
         sodipodi:nodetypes="cscscccc" />
      <path
         style="fill:#948481;fill-opacity:1;stroke:#000000;stroke-width:0;stroke-linecap:butt;stroke-linejoin:miter;stroke-miterlimit:4;stroke-dasharray:none;stroke-opacity:1"
         d="m 174.70752,315.2253 -18.31518,0.50221 c 0,0 -6.22259,0.57682 -3.04647,6.15278 3.17611,5.57596 18.2888,3.88531 18.2888,3.88531 l 0.96082,-2.41075 1.03945,-3.17953 0.74503,-3.00566 z"
         id="path5520"
         inkscape:connector-curvature="0"
         sodipodi:nodetypes="ccsccccc" />
      <path
         style="fill:#948481;fill-opacity:1;stroke:#000000;stroke-width:0;stroke-linecap:butt;stroke-linejoin:miter;stroke-miterlimit:4;stroke-dasharray:none;stroke-opacity:1"
         d="m 168.23683,332.99447 -9.71147,-0.73694 -5.59172,-0.54383 c 0,0 -5.31671,0 -2.70419,5.39302 2.61252,5.39302 11.5853,4.64444 11.5853,4.64444 l 3.10519,-4.3497 z"
         id="path5522"
         inkscape:connector-curvature="0"
         sodipodi:nodetypes="cccsccc" />
      <path
         style="fill:#948481;fill-opacity:1;stroke:#000000;stroke-width:0;stroke-linecap:butt;stroke-linejoin:miter;stroke-miterlimit:4;stroke-dasharray:none;stroke-opacity:1"
         d="m 154.12739,349.04604 c 0,0 -8.52715,-5.18671 -10.3605,-4.32564 -1.83335,0.86107 -2.33752,1.90342 -2.33752,1.90342 0,0 -0.73334,1.67682 0.96251,3.85216 1.69585,2.17534 2.97503,3.41763 2.97503,3.41763 l 5.22977,-2.51407 z"
         id="path5524"
         inkscape:connector-curvature="0"
         sodipodi:nodetypes="csccccc" />
      <path
         style="fill:#948481;fill-opacity:1;stroke:#000000;stroke-width:0;stroke-linecap:butt;stroke-linejoin:miter;stroke-miterlimit:4;stroke-dasharray:none;stroke-opacity:1"
         d="m 129.47926,359.63201 c 0,0 -1.25001,-8.06836 1.08751,-7.9324 2.33752,0.13596 6.18547,5.97744 6.18547,5.97744 z"
         id="path5526"
         inkscape:connector-curvature="0"
         sodipodi:nodetypes="cscc" />
      <path
         style="fill:#948481;fill-opacity:1;stroke:#948481;stroke-width:0.729214;stroke-linecap:butt;stroke-linejoin:miter;stroke-miterlimit:4;stroke-dasharray:none;stroke-opacity:1"
         d="m 99.295649,347.61462 c 0,0 -4.062097,9.49678 -4.887104,10.44849 -0.825008,0.95171 6.470455,2.07837 6.470455,2.07837 0,0 6.36978,-9.96082 3.98642,-11.04849 -2.38335,-1.08767 -5.569771,-1.47837 -5.569771,-1.47837 z"
         id="path5530"
         inkscape:connector-curvature="0"
         sodipodi:nodetypes="csccc" />
      <path
         style="fill:#948481;fill-opacity:1;stroke:#948481;stroke-width:0.723443;stroke-linecap:butt;stroke-linejoin:miter;stroke-miterlimit:4;stroke-dasharray:none;stroke-opacity:1"
         d="m 75.86304,315.02204 c 0,0 -13.44159,2.93429 -16.416893,1.12027 -2.975304,-1.81401 0.891517,8.94689 0.891517,8.94689 0,0 17.201082,-2.58891 16.660117,-5.08318 -0.540964,-2.49427 -1.134741,-4.98398 -1.134741,-4.98398 z"
         id="path5536"
         inkscape:connector-curvature="0"
         sodipodi:nodetypes="cscsc" />
      <path
         style="fill:#948481;fill-opacity:1;stroke:#948481;stroke-width:0.729214;stroke-linecap:butt;stroke-linejoin:miter;stroke-miterlimit:4;stroke-dasharray:none;stroke-opacity:1"
         d="m 79.769857,327.69039 -15.220781,6.441 1.651473,2.87989 2.635875,4.63353 c 0,0 13.629426,-6.5299 13.400257,-9.24907 -0.229168,-2.71917 -2.466824,-4.70535 -2.466824,-4.70535 z"
         id="path5534"
         inkscape:connector-curvature="0"
         sodipodi:nodetypes="ccccsc" />
      <path
         style="fill:#552a3a;fill-opacity:1;stroke:#522637;stroke-width:0.592073;stroke-linecap:butt;stroke-linejoin:miter;stroke-miterlimit:4;stroke-dasharray:none;stroke-opacity:1"
         d="m 80.446331,260.11363 c -3.323497,-1.30997 -0.406168,-4.33812 -0.406168,-4.33812 0,0 6.096556,1.84129 9.502825,-3.85701 0,0 3.486152,-1.34314 3.532352,1.92102 -3.944482,8.67336 -12.629009,6.27411 -12.629009,6.27411 z"
         id="path3603-10-7"
         sodipodi:nodetypes="ccccc"
         inkscape:connector-curvature="0" />
      <path
         style="fill:#532838;fill-opacity:0.963725;stroke:#522637;stroke-width:0.592073;stroke-linecap:butt;stroke-linejoin:miter;stroke-miterlimit:4;stroke-dasharray:none;stroke-opacity:1"
         d="m 112.09457,246.03805 c -3.32372,-1.30997 -0.40617,-4.33811 -0.40617,-4.33811 0,0 6.0964,1.84128 9.5026,-3.85702 0,0 3.48623,-1.34313 3.5325,1.92102 -3.94455,8.67336 -12.62893,6.27411 -12.62893,6.27411 z"
         id="path3603-1-3-2"
         sodipodi:nodetypes="ccccc"
         inkscape:connector-curvature="0" />
      <path
         style="fill:#948481;fill-opacity:1;stroke:#948481;stroke-width:0.592073;stroke-linecap:butt;stroke-linejoin:miter;stroke-miterlimit:4;stroke-dasharray:none;stroke-opacity:1"
         d="m 81.320289,229.28371 c 0,0 2.02041,6.32747 5.260152,7.0978 3.239889,0.77032 3.208663,-2.84725 3.208663,-2.84725 0,0 -2.830963,-6.49455 -2.445058,-7.44055"
         id="path3652-7-7"
         inkscape:connector-curvature="0" />
      <path
         style="fill:#948481;fill-opacity:1;stroke:#948481;stroke-width:0.592073;stroke-linecap:butt;stroke-linejoin:miter;stroke-miterlimit:4;stroke-dasharray:none;stroke-opacity:1"
         d="m 90.301232,224.90642 c 0,0 1.526689,8.88667 6.559506,8.35854 5.032582,-0.52814 -0.226968,-11.48675 -0.226968,-11.48675"
         id="path3669-8-2"
         inkscape:connector-curvature="0" />
      <path
         style="fill:#948481;fill-opacity:1;stroke:#8c7d7b;stroke-width:0.592073;stroke-linecap:butt;stroke-linejoin:miter;stroke-miterlimit:4;stroke-dasharray:none;stroke-opacity:1"
         d="m 99.354828,220.37846 c 0,0 2.841392,9.52687 6.099092,6.8124 3.25755,-2.71447 -0.38285,-9.86514 -0.38285,-9.86514"
         id="path3671-8-2"
         inkscape:connector-curvature="0" />
      <path
         style="fill:#f5ebea;fill-opacity:1;stroke:#f5ebea;stroke-width:0.592073;stroke-linecap:butt;stroke-linejoin:miter;stroke-miterlimit:4;stroke-dasharray:none;stroke-opacity:1"
         d="m 68.853568,238.79936 c 0,0 -3.650009,-8.36163 -1.151153,-9.51269 2.49879,-1.15106 7.426834,1.84307 7.426834,1.84307 0,0 -0.764426,5.83941 -6.275681,7.66962 z"
         id="path3675-6-6"
         inkscape:connector-curvature="0" />
      <path
         style="fill:#f5ebea;fill-opacity:1;stroke:#f5ebea;stroke-width:0.592073;stroke-linecap:butt;stroke-linejoin:miter;stroke-miterlimit:4;stroke-dasharray:none;stroke-opacity:1"
         d="m 110.79238,215.26527 c 0,0 0.36742,-1.74861 0.79371,-3.49005 0.39708,-1.6228 0.80005,-3.2573 2.20282,-2.9895 1.74606,0.3333 3.93219,1.46616 5.31604,2.69683 0.92098,0.81914 1.60515,1.61376 1.13438,2.49245 -1.1779,2.1988 -7.8596,2.64384 -9.44695,1.29027 z"
         id="path3677-0-1"
         sodipodi:nodetypes="cssssc"
         inkscape:connector-curvature="0" />
      <path
         style="fill:#bdaeab;fill-opacity:1;stroke:#bdaeab;stroke-width:0.257816;stroke-miterlimit:4;stroke-dasharray:none;stroke-opacity:1"
         d="m 59.933646,317.23858 c -0.570407,-0.21311 -1.455077,-0.22988 -1.614835,-0.17233 -0.178803,0.0644 -0.353345,-0.40479 -0.454025,-1.22048 -0.284991,-2.30895 -0.816106,-9.14888 -0.638131,-9.60747 0.158768,-0.40911 0.8138,0.58339 1.407952,0.96837 1.526242,0.98882 3.878694,1.27746 10.534605,1.29261 l 6.692908,-0.096 -0.176148,3.0587 c 0.289954,2.10411 0.616694,3.02697 0.419782,3.14944 -0.15838,0.0985 -2.14869,0.50856 -3.720714,0.93821 -6.730118,1.83938 -10.632051,2.36866 -12.451394,1.68897 z"
         id="path5722"
         inkscape:connector-curvature="0"
         sodipodi:nodetypes="ccsccccccccc" />
      <path
         style="fill:#ece2e3;fill-opacity:1;stroke:#000000;stroke-width:0.729214px;stroke-linecap:butt;stroke-linejoin:miter;stroke-opacity:0"
         d="m 95.336936,316.26987 c 0,0 -0.153823,4.12785 -0.566327,5.92673 -0.389902,1.70032 -1.347768,3.28193 -2.475022,4.62259 -0.723037,0.85992 -1.744007,1.42653 -2.658357,2.0847 -1.113357,0.80141 -4.674969,2.66372 -4.674969,2.66372 0,0 -7.795016,-15.25354 -5.503329,-22.50466 2.291688,-7.25112 8.831084,-2.13002 8.831084,-2.13002 0,0 4.526064,4.03456 7.04692,9.33694 z"
         id="path5510"
         inkscape:connector-curvature="0"
         sodipodi:nodetypes="cssscscc" />
      <path
         style="opacity:0.975492;fill:#320000;fill-opacity:1;fill-rule:evenodd;stroke:#330000;stroke-width:0.148018;stroke-linejoin:bevel;stroke-miterlimit:4;stroke-dasharray:none;stroke-opacity:1"
         d="M 107.05125,363.84969 C 95.829552,362.87108 87.232278,360.03637 78.937073,354.57965 62.475871,343.75148 53.805798,327.27427 55.287556,309.63474 56.249962,298.17732 59.102163,288.3797 63.15625,282.605 c 2.460033,-3.50407 6.545866,-6.21849 9.423844,-6.26064 0.800191,-0.0118 1.454866,-0.0579 1.454866,-0.10262 0,-0.0447 -0.822324,-0.87965 -1.827506,-1.85539 -3.054126,-2.96481 -6.21279,-9.88906 -8.708295,-19.0902 -3.863117,-14.24305 -4.895939,-26.25762 -2.68596,-31.24462 0.735958,-1.66078 1.508656,-2.35218 3.081847,-2.75759 2.895116,-0.74612 9.538516,0.93766 15.825007,4.01088 l 1.994113,0.97482 10.442578,-5.22598 c 7.769444,-3.88822 10.472546,-5.36929 10.560176,-5.78582 1.28191,-6.09949 3.09809,-10.94625 5.07446,-13.54121 1.76476,-2.31708 5.06299,-2.6283 8.91984,-0.84164 2.66555,1.23481 7.29845,5.13283 14.14602,11.90218 9.23078,9.12543 12.10973,13.07042 14.37313,19.69564 1.6825,4.92459 2.7069,11.70699 2.59774,17.19864 l -0.0559,2.81552 2.79169,1.60197 c 9.98336,5.72891 17.39253,14.71161 23.38306,28.34928 1.65332,3.76368 3.10423,8.56795 3.95769,13.10478 0.54862,2.91707 0.64219,4.40243 0.64652,10.26839 0.007,7.4262 -0.34856,10.21144 -2.01229,15.82466 -5.20068,17.54751 -19.43359,31.51971 -38.74654,38.03685 -9.75252,3.29097 -21.90107,4.93767 -30.74111,4.16679 z m 14.1867,-3.03133 c 19.21869,-2.4106 36.12719,-12.07745 45.52153,-26.02543 4.91628,-7.2993 7.61319,-14.60434 8.51375,-23.06152 0.45408,-4.26414 0.19338,-14.75839 -0.44432,-17.88508 -1.37364,-6.73538 -6.6984,-18.13158 -11.06335,-23.67795 -3.21098,-4.08005 -9.86832,-10.1245 -15.84021,-14.38166 l -2.95555,-2.10698 -2.2e-4,-2.83073 c 0,-10.64927 -2.56175,-19.57621 -7.86668,-27.42209 -6.72284,-9.94344 -19.2722,-20.5088 -24.883,-20.9495 -1.02955,-0.0809 -1.15607,0.001 -2.18904,1.42546 -1.71677,2.36643 -2.90644,5.68428 -4.4616,12.44301 l -0.24797,1.07805 -12.110781,6.08132 -12.110853,6.08132 -4.036875,-2.03521 c -4.795494,-2.41753 -8.727824,-3.7688 -11.061488,-3.80092 -2.731339,-0.0376 -3.449492,0.76016 -3.702912,4.11371 -0.189854,2.51169 0.506687,7.34992 1.78704,12.41135 0.548934,2.17041 1.130583,5.36726 1.29235,7.10412 0.717258,7.69769 2.272415,13.90149 4.611367,18.39501 1.225213,2.35331 5.990822,8.56961 7.853345,10.2435 3.412084,3.06655 8.732964,6.01582 10.837203,6.00688 1.548154,-0.007 3.743671,-0.80481 8.279408,-3.01019 5.064036,-2.46235 7.118426,-3.33328 9.948046,-4.21775 4.83632,-1.51156 13.64813,-2.5753 21.1245,-2.55008 5.36015,0.0181 6.65407,0.2864 6.78833,1.40775 0.0477,0.39807 -0.0822,0.85162 -0.28836,1.00791 -0.20618,0.15629 -3.4892,0.43107 -7.29546,0.61063 -9.90714,0.46736 -13.94432,1.13185 -21.6265,3.55956 -10.011459,3.16373 -18.223803,8.56779 -20.568643,13.53497 -1.077754,2.28285 -1.205993,5.5629 -0.285233,7.29312 1.095111,2.05765 3.18087,3.07673 6.303475,3.07978 2.384631,0.002 4.690802,-0.67157 8.068463,-2.35771 0.597247,-0.29814 1.165218,-0.57443 1.710758,-0.83138 3.38666,-1.59509 5.90943,-2.44459 9.21259,-3.14741 2.85584,-0.60767 3.84932,-0.69314 6.80427,-0.58544 2.91234,0.10613 3.8918,0.26748 6.18523,1.01896 4.82291,1.58031 8.06808,3.65682 10.7688,6.89104 2.43694,2.91834 4.44938,7.67831 4.97596,11.77017 0.32584,2.53214 -0.40401,1.7956 -1.61506,-1.62984 -1.41217,-3.99457 -3.04966,-6.59344 -5.87242,-9.32047 -2.57211,-2.48474 -4.89676,-3.82805 -8.53111,-4.92972 -1.81916,-0.55138 -2.78119,-0.65553 -6.05551,-0.65553 -3.5389,0 -4.0894,0.0704 -6.05557,0.77434 -2.68641,0.96194 -5.51424,2.98847 -7.17907,5.14491 -1.82504,2.36394 -3.634668,6.23548 -4.495213,9.61715 -0.411162,1.61602 -0.841845,3.30622 -0.956818,3.75602 -0.115046,0.44982 -0.366377,0.86875 -0.558695,0.93096 -0.517041,0.16732 -1.747769,-1.24321 -2.730966,-3.13008 -1.653513,-3.17325 -4.054314,-6.65985 -5.607308,-8.14364 -3.698285,-3.53321 -7.221323,-3.53567 -9.023264,-0.007 -0.610858,1.19665 -0.706009,1.7668 -0.6999,4.19837 0.01716,6.75308 2.487834,14.36516 6.586999,20.29086 3.834349,5.54295 6.936538,8.44464 11.605135,10.85486 5.21082,2.69013 10.41196,4.27372 16.37536,4.98598 3.86118,0.46114 5.6228,0.84921 5.6228,1.23855 0,0.38465 -1.68278,0.57314 -5.1173,0.57314 -7.76631,0 -14.770513,-1.88096 -20.543314,-5.51674 -5.300904,-3.33858 -12.099816,-11.532 -14.540783,-17.52309 -0.751834,-1.84507 -2.383289,-8.21083 -3.206279,-12.5098 -0.843635,-4.40779 -0.333296,-8.45591 1.870787,-14.83566 2.572483,-7.44689 2.89758,-8.748 2.89758,-11.59711 0,-6.00729 -2.255057,-8.53357 -7.335255,-8.21709 -1.793149,0.11171 -2.421218,0.29227 -3.779957,1.08668 -4.80972,2.81193 -8.489606,8.74754 -10.770594,17.37259 -1.928904,7.29359 -1.97242,14.51869 -0.138594,22.99615 1.338177,6.18602 3.137507,10.1241 7.6652,16.77628 3.549791,5.21534 5.84128,8.12856 7.726448,9.82287 3.302926,2.96849 9.736804,6.70252 15.981561,9.27526 5.980395,2.46389 10.45086,3.4138 17.71511,3.76427 7.25634,0.35007 9.61027,0.32787 13.21863,-0.12473 z"
         id="path3059"
         inkscape:connector-curvature="0"
         sodipodi:nodetypes="cccccsccccccsccccccccccccsccsccsccccccccccccccccccccscsscccccsccccccccsccccccccccccssscccscccccccccc" />
      <path
         style="fill:#ece2e3;fill-opacity:1;stroke:#000000;stroke-width:0.729214px;stroke-linecap:butt;stroke-linejoin:miter;stroke-opacity:0"
         d="m 81.295487,271.25748 c 0.06725,-0.76815 0.798402,-1.33858 1.329179,-1.90342 0.547328,-0.58245 1.879184,-1.49554 1.879184,-1.49554 l 1.925017,-1.26895 2.429189,-1.76746 c 1.183127,-1.05229 2.089219,-2.09894 3.025027,-3.263 l 1.283345,-2.26598 0.870841,-1.90342 1.741683,-3.76152 1.329179,-2.58321 c 0,0 4.583379,-7.2058 11.962609,-3.67088 7.37924,3.53492 12.60428,2.3113 20.48769,-0.77043 7.8834,-3.08173 9.77891,1.06464 8.89961,6.01422 -0.86854,4.88901 -3.41624,8.69585 -3.41624,8.69585 l -7.77506,10.26098 c 0,0 -10.11488,0.39554 -17.49411,2.11768 -7.37923,1.72215 -12.707011,5.34248 -16.422867,6.4477 -3.769521,1.12119 -7.741254,-2.6143 -10.450094,-5.43834 -0.879693,-0.9171 -1.714447,-2.185 -1.604182,-3.44428 z"
         id="path5488"
         inkscape:connector-curvature="0"
         sodipodi:nodetypes="aaccccccccsssccssaa" />
      <path
         style="fill:#ece2e3;fill-opacity:1;stroke:#000000;stroke-width:0.145843;stroke-linecap:butt;stroke-linejoin:miter;stroke-miterlimit:4;stroke-dasharray:none;stroke-opacity:0"
         d="m 93.051844,284.87599 c 0,0 -0.303405,2.44914 -0.206252,3.67088 0.06248,0.78572 0.296086,1.55048 0.504171,2.31129 0.211891,0.77474 0.404958,1.56514 0.756257,2.28864 0.320037,0.65912 0.75512,1.26258 1.214594,1.83544 0.564034,0.70323 1.194802,1.35913 1.879184,1.94874 0.837584,0.72159 1.786284,1.30734 2.704191,1.92608 0.337901,0.22777 1.031261,0.65713 1.031261,0.65713 l -5.36255,2.44725 c 0,0 -2.360438,0.79309 -4.193788,0.77043 -1.83335,-0.0226 -4.079204,-0.36255 -5.385465,-1.45022 -1.306262,-1.08767 -1.558348,-2.44725 -1.558348,-2.44725 0,0 -0.756257,-3.01375 0.114584,-5.30238 0.870842,-2.28864 2.383355,-3.98812 2.383355,-3.98812 l 2.727108,-2.53789 3.414615,-2.46991 z"
         id="path5492"
         inkscape:connector-curvature="0"
         sodipodi:nodetypes="caaaaaacccscscccc" />
      <path
         style="fill:#532738;fill-opacity:0.964706;stroke:#522637;stroke-width:0.591876;stroke-linecap:butt;stroke-linejoin:miter;stroke-miterlimit:4;stroke-dasharray:none;stroke-opacity:1"
         d="m 101.10305,268.29484 c -5.367306,1.47378 -10.767395,-4.95606 -2.133233,-3.8287 6.512043,-0.15882 4.446703,-6.47087 4.446703,-6.47087 -1.68369,0.10853 -2.5853,-0.11534 -3.14086,-0.32016 -0.25096,-0.0925 -0.473011,-0.17108 -0.613468,-0.29254 -0.504009,-0.40486 -0.851312,-0.93641 -0.99512,-1.5211 -0.14493,-0.58949 -0.175253,-1.35369 0.180622,-1.81001 0.296636,-0.38031 0.692889,-0.63393 0.692889,-0.63393 l 5.084307,-2.72634 c 2.69423,-1.33247 3.94753,0.54852 3.94753,0.54852 1.64062,2.89705 -1.5012,5.37993 -1.5012,5.37993 0.2394,1.58492 2.77537,2.17594 2.77537,2.17594 4.18866,0.48165 7.38101,-3.02322 7.71259,-3.28718 0.43895,-0.34937 0.81286,-0.52986 1.1305,-0.59461 0.27973,-0.057 0.49,-0.02 0.71346,0.062 0.15365,0.0564 0.28181,0.16971 0.39746,0.28307 0.29648,0.35513 0.39551,0.65699 0.42755,0.9722 0.0276,0.27219 0.0238,0.55432 -0.15871,0.8893 -4.61308,7.96093 -12.65651,4.10851 -12.65651,4.10851 0,0 -1.89798,5.98515 -6.30988,7.06599 z"
         id="path3679-4-0"
         sodipodi:nodetypes="cccscascccccssacsccsc"
         inkscape:connector-curvature="0" />
      <path
         style="fill:#bdaeab;fill-opacity:1;stroke:#bdaeab;stroke-width:0.0911518;stroke-miterlimit:4;stroke-dasharray:none;stroke-opacity:1"
         d="m 72.588072,302.45453 c -3.211757,-0.45237 -5.73507,-1.14847 -8.865002,-2.44555 -1.727896,-0.71607 -4.380951,-2.03293 -4.380951,-2.17451 0,-0.2398 0.91933,-3.1086 1.406099,-4.38778 1.090454,-2.86561 2.218573,-5.07298 3.613173,-7.06984 0.872279,-1.24897 2.039125,-2.63176 2.039125,-2.41649 0,0.0324 -0.251154,0.39379 -0.558115,0.80315 -0.688746,0.91849 -1.416359,2.13254 -2.011655,3.35655 -0.49628,1.02042 -0.510756,1.0666 -0.334256,1.0666 0.06651,0 0.283113,0.13536 0.481254,0.30079 1.494305,1.24766 3.814424,2.17473 6.725491,2.68737 2.066984,0.36399 3.756658,0.48808 6.70921,0.49269 l 2.807687,0.004 -0.12766,0.42504 c -0.424259,1.41261 -0.865788,2.77098 -1.873845,5.76488 l -1.132797,3.36442 -0.553034,0.10751 c -0.549873,0.10689 -3.419491,0.19476 -3.944724,0.12078 z"
         id="path5726"
         inkscape:connector-curvature="0" />
      <path
         style="fill:#ece2e3;fill-opacity:1;stroke:#000000;stroke-width:0.729214px;stroke-linecap:butt;stroke-linejoin:miter;stroke-opacity:0"
         d="m 62.877491,288.78581 c 0,0 4.857872,-9.67015 12.182391,-8.83695 4.319262,0.49133 5.326735,3.0624 5.573788,5.10874 0.07757,0.64252 0.200613,1.23577 0.200833,1.69338 2.65e-4,0.55642 0.03159,1.24822 0.03159,1.24822 l -0.01666,1.43879 -0.23889,1.73021 -0.341131,1.45354 c 0,0 -11.996951,1.0411 -16.663897,-3.38121"
         id="path5512"
         inkscape:connector-curvature="0"
         sodipodi:nodetypes="csssccccc" />
    </g>
  </g>
</svg>
